<?xml version="1.0" encoding="utf-8"?>
<!-- Generator: Adobe Illustrator 18.1.1, SVG Export Plug-In . SVG Version: 6.00 Build 0)  -->
<svg version="1.1" id="Layer_2" xmlns="http://www.w3.org/2000/svg" xmlns:xlink="http://www.w3.org/1999/xlink" x="0px" y="0px"
	 viewBox="-0.1 -0.2 50.3 50.4" enable-background="new -0.1 -0.2 50.3 50.4" xml:space="preserve">
<g>
	<circle fill="#FFF9F0" cx="42.7" cy="7.3" r="0.2"/>
	<circle fill="#FFF9F0" cx="37.5" cy="3.3" r="0.2"/>
	<circle fill="#FFF9F0" cx="31.3" cy="0.8" r="0.2"/>
	<circle fill="#FFF9F0" cx="25" cy="0" r="0.2"/>
	<circle fill="#FFF9F0" cx="42.8" cy="42.5" r="0.2"/>
	<circle fill="#FFF9F0" cx="46.6" cy="37.5" r="0.2"/>
	<circle fill="#FFF9F0" cx="49.2" cy="31.2" r="0.2"/>
	<circle fill="#FFF9F0" cx="50" cy="25" r="0.2"/>
	<circle fill="#FFF9F0" cx="49.2" cy="18.7" r="0.2"/>
	<circle fill="#FFF9F0" cx="46.7" cy="12.5" r="0.2"/>
	<circle fill="#FFF9F0" cx="25" cy="50" r="0.2"/>
	<circle fill="#FFF9F0" cx="31.3" cy="49.1" r="0.2"/>
	<circle fill="#FFF9F0" cx="37.5" cy="46.6" r="0.2"/>
</g>
<g>
	<circle fill="#FFF9F0" cx="7.4" cy="7.3" r="0.2"/>
	<circle fill="#FFF9F0" cx="12.6" cy="3.3" r="0.2"/>
	<circle fill="#FFF9F0" cx="18.8" cy="0.8" r="0.2"/>
	<circle fill="#FFF9F0" cx="7.2" cy="42.5" r="0.2"/>
	<circle fill="#FFF9F0" cx="3.4" cy="37.5" r="0.2"/>
	<circle fill="#FFF9F0" cx="0.9" cy="31.2" r="0.2"/>
	<circle fill="#FFF9F0" cx="0.1" cy="25" r="0.2"/>
	<circle fill="#FFF9F0" cx="0.9" cy="18.7" r="0.2"/>
	<circle fill="#FFF9F0" cx="3.4" cy="12.5" r="0.2"/>
	<circle fill="#FFF9F0" cx="18.8" cy="49.1" r="0.2"/>
	<circle fill="#FFF9F0" cx="12.6" cy="46.6" r="0.2"/>
</g>
</svg>
