<?xml version="1.0" encoding="utf-8"?>
<!-- Generator: Adobe Illustrator 19.0.0, SVG Export Plug-In . SVG Version: 6.00 Build 0)  -->
<svg version="1.1" id="Layer_2" xmlns="http://www.w3.org/2000/svg" xmlns:xlink="http://www.w3.org/1999/xlink" x="0px" y="0px"
	 viewBox="374 -268.8 798.8 586.8" style="enable-background:new 374 -268.8 798.8 586.8;" xml:space="preserve">
<style type="text/css">
	.st0{fill:#F5B7BA;}
</style>
<path class="st0" d="M1172.5-16c-2.6-37.7-3.8-28.3-3.8-28.3c6.7,141.5-91.1,280.4-265.1,333.5c-167.9,47.9-268.3-30.8-285.3-45.6
	c-0.9-0.8-21.8-18.8-38.6-42.2c56.1-17.4,105.1-40.1,139.1-55.4c0,0,59.4,45.3,139.9,44.5c29.1-1.2,55.6-8,77-18.2
	c3.1,1.7,6.7,2.5,10.5,2.5c25.8,0,50.8-14.1,113.3-133.6c14.1-9.4,28.9-19.5,41.4-28.1c55.5-37.5,57-81.3,55.5-98.5
	c-6.1-70.8-82.9-139.7-149.7-162.5c-64.7-24.2-144.3-30.6-235.4-1.4c-33.4,11.4-58.6,24.9-85.3,39.8c-47-23.5-127.8-15.3-170.9,46.2
	c-27.2,38.7-24.9,69.5-16.4,90.2c0.7,1.7,2.8,5.5,3.7,5.2c0.7-0.5-0.2-3-0.4-3.5c-6.3-15.2-8.4-35.5,3.6-60.2
	c4.7-9.4,20.8-36.8,55.9-54.9c50.1-25.6,94-7.7,98.5-5.7C554.3-112.7,510.4,6.3,517.7,83.6c4.6,51.7,19.7,83.4,31,102.5
	c-10.1,3.3-20.3,6.4-30.6,8.9c-78.9,16.5-114.3-19.3-124.9-33.5c-7.5-10.1-14.1-23-11-43.1c3.1-19.5,14.8-37.4,28.9-50.8
	c14.1-13.3-0.2-3.1-1.6-1.6c-15.7,13.5-29,31.5-33.7,51.8c-1.6,7-2.3,14.1-1.6,21.1c0.8,7,3.1,14.1,6.3,20.3
	c25.8,53.9,87.5,62.5,140.6,56.3c7.8-0.8,35.2-7,39.8-8.6c0.3-0.1,0.5-0.1,0.8-0.2c13.1,18,33.9,40.6,62.9,60.3
	c13.4,9.1,29.8,17.7,48.1,25.6c61.4,25.4,145.4,36.5,234.9,11.1C1156.7,226.4,1175.6,29.3,1172.5-16z M930.5,168.2
	c-17.1,8.6-42.7,16-79.6,16c-71.9,0-121.9-43-121.9-43s61.7-31.3,121.9-46.9c12.5-3.1,23.4-6.3,32.8-7c3.1,0,5.5-0.8,8.6-0.8
	c13.3-1.6,25.8-1.6,35.9,0.8c14.4,3.4,23.4,9.1,28.8,15.9c-20.1,17-31.9,32.8-31.9,48.2C925.1,158.7,927.2,164.3,930.5,168.2z
	 M940.5,162.5c-2.2-2.7-3.7-6.7-3.7-11.9c0-11.5,7.1-24.1,24.5-40.4C967.4,124.1,965.6,149.1,940.5,162.5z M950.1,167.1
	c-1.2,0-2.4-0.2-3.5-0.5c3.2-1.8,6.2-3.8,9-5.8c23-15.8,30.7-40.4,20.3-63c16.3-13.1,38.3-28.5,67.2-47.1
	C996.2,142.1,971.2,167.1,950.1,167.1z M707.1-190.8c97-56.1,219.1-70.6,321.9-31.2c39.8,15.6,74.2,41.4,98.5,77.4
	c14.8,23.4,25,50.8,22.7,78.9c-0.8,14.1-4.7,35.9-32,60.9c-11.7,10.2-28.9,20.3-51.6,34.4c0,0,42.2-87.5,46.1-93.8
	c0.8-1.6,6.3-14.8-0.8-10.9c-18.8,32-81.3,107-107,107c-4.7,0-6.3-1.6-6.3-6.3c0-16.4,41.4-53.1,41.4-84.4
	c0-11.7-5.5-24.2-18.8-24.2C997-83,961-35.3,932.1-2.5c-21.9,25-52.4,47.7-53.1,28.1c0,0,0.4-17.2,13.3-39.5
	c0.8-1.4,1.6-2.8,2.5-4.2c0.1-0.2,0.2-0.3,0.3-0.5c12.4-19.8,32.1-41.7,57.9-40.3c0.6,0.1,1.2,0.1,1.8,0.1c6.3,0,9.4-4.7,9.4-10.2
	c0-7.8-6.3-14.1-17.2-14.1c-17.1,0-40.2,22-53.7,45.4c0.7-2.8,1.4-9.4,1.4-17.3c0-17.2-6.3-27.3-18-28.1
	c-20.3-0.8-52.9,41.8-75,64.1C788.4-5.6,768.1,5.2,756.4,1.3c15.2-18.8,32.9-53.4,22.5-76.1c-3.7-8.1-12-19.2-32.4-14.5
	c-33.2,7.7-69.3,53.5-69.3,53.5s-13.3,18.4-20.3,16c-6-2,2.4,6.9,10.2,2.7c-14.8,38.3,4.7,56.7,25.5,57.1c1.4,0,2.8,0,4.2-0.1
	c5.3-0.6,20.8-3.9,41.7-22.8c8.2-8.3,14.3-9.6,24.2-10.2l0,0c14.2-1.3,26.1-8.3,36.6-18.1c12.5-11.7,56.8-64.6,73.2-63.8
	c10.5,0.7,4.7,15,2.3,23.8c-6.6,22.8-18.3,43.1-30.4,56.9c-2.3,2.5-4.6,4.9-6.9,7.1c-13.5,12.6-26.5,16.1-32.4,5l0,0
	c-1.6-3.5-4.7-5.6-8.9-5.6c-8.6,0-11.7,5.5-11.7,12.5c0,8.6,4.7,15.6,18.8,15.6c3.2,0,6.4-0.6,9.6-1.7l0,0c0,0,23.2-6.4,48-43.7h0.2
	c-0.8,0-1.6,7-1.6,10.2c0,18.8,2.3,32,20.3,34.4c26.6,3.1,69.4-56.4,97.7-88.3c18-20.3,46.1-36.7,47.7-21.9
	c1.6,18.8-41.4,52.4-41.4,84.4c0,11.7,7.8,25,18.8,25c21.1,0,68.8-50,80.5-65.6l-36.9,70.5c-28.6,17.1-53.9,32.9-73.9,47.6
	c-7.5-11.8-20.2-22.8-38.6-31.2c-65.6-28.1-149.2,5.5-226.6,45.3l-10.9,5.5l-0.1-0.1l0.1,0.2c0,0-0.8-0.9-2.3-2.7
	c-3.3-3.8-9.7-12-16.9-24.4c-18.2-30.2-41.8-84.2-34.7-152.6c0-0.1,0-0.1,0-0.2c0.3,0,0.5,0,0.8,0c32.3-7.8,55.5-26,68.5-46.6
	C736.2-160.3,707.3-190.7,707.1-190.8z M730.8,17.1c-43.7,34.6-60.7,5.3-30.5-49.3c14.7-26.7,32-44,51.3-49
	C787.2-90.6,782-23.4,730.8,17.1z M543.8,106.1c-8.6-71.9,12.5-144.6,55.5-202.4c22.7-30.5,53.5-58.5,85.5-80.2
	c1.4,1.4,18.9,20.7,4.9,48c-16.1,33.6-61.4,51.4-73.6,49.7c-6.5-0.8-8-4.5-8.3,0.5c0.6,10.9,7.3,124.3,76.3,195.7
	c-16.7,10.5-77.7,47.7-118.2,63.1C553.7,158.5,546.9,129.6,543.8,106.1z"/>
</svg>
